<?xml version="1.0" standalone="no"?><!DOCTYPE svg PUBLIC "-//W3C//DTD SVG 1.1//EN" "http://www.w3.org/Graphics/SVG/1.1/DTD/svg11.dtd"><svg t="1567934873070" class="icon" viewBox="0 0 1024 1024" version="1.1" xmlns="http://www.w3.org/2000/svg" p-id="2386" xmlns:xlink="http://www.w3.org/1999/xlink" width="200" height="200"><defs><style type="text/css"></style></defs><path d="M512.271059 119.024941L87.190588 395.444706v286.72l425.200941 276.359529 425.200942-276.419764v-286.72L512.271059 119.085176z m15.48047-57.584941l453.571765 294.851765a28.310588 28.310588 0 0 1 12.890353 23.732706v317.44a28.310588 28.310588 0 0 1-12.890353 23.792941l-453.571765 294.791529a28.310588 28.310588 0 0 1-30.900705 0L43.339294 721.257412a28.310588 28.310588 0 0 1-12.890353-23.732706V380.084706c0-9.637647 4.818824-18.612706 12.890353-23.792941l453.571765-294.851765a28.310588 28.310588 0 0 1 30.84047 0z" fill="#666666" p-id="2387"></path><path d="M539.075765 966.776471c0 16.865882-11.986824 30.599529-26.744471 30.599529s-26.744471-13.673412-26.74447-30.599529v-258.228706c0-16.865882 11.986824-30.599529 26.74447-30.59953s26.744471 13.673412 26.744471 30.59953v258.228706z" fill="#666666" p-id="2388"></path><path d="M925.304471 377.072941a26.744471 26.744471 0 0 1 30.72 43.971765l-428.333177 299.791059a26.744471 26.744471 0 0 1-30.72 0L68.638118 420.984471a26.744471 26.744471 0 0 1 30.72-43.851295l412.973176 289.129412 412.973177-289.129412z" fill="#666666" p-id="2389"></path><path d="M512.271059 409.419294l-412.912941 289.129412a26.744471 26.744471 0 0 1-30.72-43.851294L496.971294 354.785882a26.744471 26.744471 0 0 1 30.72 0l428.272941 299.851294a26.744471 26.744471 0 1 1-30.659764 43.851295l-412.973177-289.129412z" fill="#666666" p-id="2390"></path><path d="M485.586824 108.905412c0-16.926118 11.986824-30.659765 26.74447-30.659765s26.744471 13.733647 26.744471 30.659765v258.228706c0 16.865882-11.986824 30.599529-26.744471 30.599529s-26.744471-13.673412-26.74447-30.599529V108.905412z" fill="#666666" p-id="2391"></path></svg>