<?xml version="1.0" standalone="no"?><!DOCTYPE svg PUBLIC "-//W3C//DTD SVG 1.1//EN" "http://www.w3.org/Graphics/SVG/1.1/DTD/svg11.dtd"><svg t="1570602841066" class="icon" viewBox="0 0 1024 1024" version="1.1" xmlns="http://www.w3.org/2000/svg" p-id="2468" xmlns:xlink="http://www.w3.org/1999/xlink" width="200" height="200"><defs><style type="text/css"></style></defs><path d="M838.683 185.317c17.183 17.183 17.183 45.042 0 62.225s-45.042 17.183-62.225 0c-146.056-146.056-382.86-146.056-528.916 0-17.183 17.183-45.042 17.183-62.225 0s-17.183-45.042 0-62.225c180.422-180.423 472.944-180.423 653.366 0z" fill="#FFFFFF" p-id="2469"></path><path d="M512 972C257.949 972 52 766.051 52 512S257.949 52 512 52s460 205.949 460 460-205.949 460-460 460z m0-88c205.45 0 372-166.55 372-372S717.45 140 512 140 140 306.55 140 512s166.55 372 372 372z" fill="#FFFFFF" fill-opacity=".2" p-id="2470"></path></svg>