<?xml version="1.0" standalone="no"?><!DOCTYPE svg PUBLIC "-//W3C//DTD SVG 1.1//EN" "http://www.w3.org/Graphics/SVG/1.1/DTD/svg11.dtd"><svg t="1568258938588" class="icon" viewBox="0 0 1024 1024" version="1.1" xmlns="http://www.w3.org/2000/svg" p-id="13723" xmlns:xlink="http://www.w3.org/1999/xlink" width="200" height="200"><defs><style type="text/css"></style></defs><path d="M497.230769 64m-44.307692 0a44.307692 44.307692 0 1 0 88.615385 0 44.307692 44.307692 0 1 0-88.615385 0Z" fill="#455964" opacity=".6" p-id="13724"></path><path d="M728.615385 118.153846m-39.384616 0a39.384615 39.384615 0 1 0 78.769231 0 39.384615 39.384615 0 1 0-78.769231 0Z" fill="#A5A5A5" p-id="13725"></path><path d="M733.538462 123.076923m-44.307693 0a44.307692 44.307692 0 1 0 88.615385 0 44.307692 44.307692 0 1 0-88.615385 0Z" fill="#455964" opacity=".7" p-id="13726"></path><path d="M280.615385 891.076923m-44.307693 0a44.307692 44.307692 0 1 0 88.615385 0 44.307692 44.307692 0 1 0-88.615385 0Z" fill="#455964" opacity=".8" p-id="13727"></path><path d="M123.076923 713.846154m-44.307692 0a44.307692 44.307692 0 1 0 88.615384 0 44.307692 44.307692 0 1 0-88.615384 0Z" fill="#455964" opacity=".7" p-id="13728"></path><path d="M65.673846 500.755692m-39.384615 0a39.384615 39.384615 0 1 0 78.769231 0 39.384615 39.384615 0 1 0-78.769231 0Z" fill="#455964" opacity=".65" p-id="13729"></path><path d="M118.153846 275.692308m-39.384615 0a39.384615 39.384615 0 1 0 78.769231 0 39.384615 39.384615 0 1 0-78.769231 0Z" fill="#455964" opacity=".6" p-id="13730"></path><path d="M288.708923 121.186462m-39.384615 0a39.384615 39.384615 0 1 0 78.76923 0 39.384615 39.384615 0 1 0-78.76923 0Z" fill="#455964" opacity=".6" p-id="13731"></path><path d="M886.153846 275.692308m-59.076923 0a59.076923 59.076923 0 1 0 118.153846 0 59.076923 59.076923 0 1 0-118.153846 0Z" fill="#455964" opacity=".8" p-id="13732"></path><path d="M940.307692 507.076923m-73.846154 0a73.846154 73.846154 0 1 0 147.692308 0 73.846154 73.846154 0 1 0-147.692308 0Z" fill="#455964" opacity=".9" p-id="13733"></path><path d="M507.451077 940.524308m-59.076923 0a59.076923 59.076923 0 1 0 118.153846 0 59.076923 59.076923 0 1 0-118.153846 0Z" fill="#455964" opacity=".9" p-id="13734"></path><path d="M891.076923 713.846154m-83.692308 0a83.692308 83.692308 0 1 0 167.384616 0 83.692308 83.692308 0 1 0-167.384616 0Z" fill="#455964" p-id="13735"></path><path d="M733.538462 891.076923m-83.692308 0a83.692308 83.692308 0 1 0 167.384615 0 83.692308 83.692308 0 1 0-167.384615 0Z" fill="#455964" p-id="13736"></path></svg>